<svg width="30" height="30" viewBox="0 0 30 30" fill="none" xmlns="http://www.w3.org/2000/svg">
<path d="M16.3256 2.81252C15.974 2.46102 15.4972 2.26355 15 2.26355C14.5028 2.26355 14.026 2.46102 13.6744 2.81252L1.21124 15.2738C1.12408 15.3609 1.05494 15.4644 1.00776 15.5783C0.96059 15.6922 0.93631 15.8143 0.93631 15.9375C0.93631 16.0608 0.96059 16.1829 1.00776 16.2967C1.05494 16.4106 1.12408 16.5141 1.21124 16.6013C1.38728 16.7773 1.62604 16.8762 1.87499 16.8762C1.99826 16.8762 2.12033 16.8519 2.23421 16.8048C2.3481 16.7576 2.45158 16.6884 2.53874 16.6013L3.74999 15.3881V25.3125C3.74999 26.0584 4.04631 26.7738 4.57376 27.3013C5.1012 27.8287 5.81657 28.125 6.56249 28.125H23.4375C24.1834 28.125 24.8988 27.8287 25.4262 27.3013C25.9537 26.7738 26.25 26.0584 26.25 25.3125V15.3881L27.4612 16.6013C27.6373 16.7773 27.876 16.8762 28.125 16.8762C28.3739 16.8762 28.6127 16.7773 28.7887 16.6013C28.9648 16.4252 29.0637 16.1865 29.0637 15.9375C29.0637 15.6886 28.9648 15.4498 28.7887 15.2738L24.375 10.8619V4.68752C24.375 4.43888 24.2762 4.20043 24.1004 4.02461C23.9246 3.8488 23.6861 3.75002 23.4375 3.75002H21.5625C21.3139 3.75002 21.0754 3.8488 20.8996 4.02461C20.7238 4.20043 20.625 4.43888 20.625 4.68752V7.1119L16.3256 2.81252ZM24.375 13.5131V25.3125C24.375 25.5612 24.2762 25.7996 24.1004 25.9754C23.9246 26.1513 23.6861 26.25 23.4375 26.25H6.56249C6.31385 26.25 6.0754 26.1513 5.89958 25.9754C5.72377 25.7996 5.62499 25.5612 5.62499 25.3125V13.5131L15 4.13815L24.375 13.5131Z" fill="black"/>
</svg>
