<svg width="30" height="30" viewBox="0 0 30 30" fill="none" xmlns="http://www.w3.org/2000/svg">
<g clip-path="url(#clip0_6022_9)">
<path d="M6.85128 2.48994C6.74059 2.34756 6.60087 2.23035 6.44141 2.14611C6.28194 2.06188 6.10638 2.01253 5.92638 2.00136C5.74637 1.99019 5.56606 2.01744 5.3974 2.08131C5.22874 2.14519 5.0756 2.24421 4.94815 2.37182L3.0094 4.31244C2.10378 5.21994 1.77003 6.50432 2.16565 7.63119C3.80952 12.2945 6.48032 16.5288 9.98065 20.0212C13.473 23.5215 17.7073 26.1923 22.3707 27.8362C23.4975 28.2318 24.7819 27.8981 25.6894 26.9924L27.6282 25.0537C27.7558 24.9262 27.8548 24.7731 27.9187 24.6045C27.9825 24.4358 28.0098 24.2555 27.9986 24.0755C27.9874 23.8955 27.9381 23.7199 27.8539 23.5604C27.7696 23.401 27.6524 23.2613 27.51 23.1506L23.1844 19.7868C23.0322 19.6691 22.8552 19.5873 22.6669 19.5477C22.4785 19.5081 22.2837 19.5116 22.0969 19.5581L17.9907 20.5837C17.4425 20.7198 16.8685 20.712 16.3242 20.5613C15.7799 20.4105 15.2838 20.1218 14.8838 19.7231L10.2788 15.1162C9.87974 14.7164 9.59068 14.2203 9.43958 13.676C9.28848 13.1317 9.28045 12.5576 9.41628 12.0093L10.4438 7.90307C10.4902 7.71629 10.4937 7.52142 10.4541 7.33308C10.4145 7.14474 10.3328 6.96782 10.215 6.81557L6.85128 2.48994ZM3.53253 0.958068C3.86064 0.629848 4.25483 0.375187 4.68891 0.210995C5.123 0.0468029 5.58705 -0.0231633 6.05024 0.00574221C6.51344 0.0346477 6.96519 0.161764 7.37549 0.378649C7.7858 0.595535 8.14526 0.897227 8.43003 1.26369L11.7938 5.58744C12.4107 6.38057 12.6282 7.41369 12.3844 8.38869L11.3588 12.4949C11.3061 12.7076 11.3092 12.9303 11.3676 13.1415C11.4261 13.3527 11.538 13.5452 11.6925 13.7006L16.2994 18.3074C16.4549 18.4623 16.6478 18.5744 16.8593 18.6328C17.0709 18.6913 17.2939 18.6942 17.5069 18.6412L21.6113 17.6156C22.0925 17.496 22.5945 17.487 23.0797 17.5893C23.5649 17.6916 24.0206 17.9025 24.4125 18.2062L28.7363 21.5699C30.2907 22.7793 30.4332 25.0762 29.0419 26.4656L27.1032 28.4043C25.7157 29.7918 23.6419 30.4012 21.7088 29.7206C16.76 27.9817 12.2673 25.1489 8.56503 21.4331C4.84948 17.7313 2.01669 13.2393 0.277528 8.29119C-0.401221 6.35994 0.208154 4.28432 1.59565 2.89682L3.53253 0.958068Z" fill="black"/>
</g>
<defs>
<clipPath id="clip0_6022_9">
<rect width="30" height="30" fill="white"/>
</clipPath>
</defs>
</svg>
